<svg width="50" height="46" viewBox="0 0 50 46" fill="none" xmlns="http://www.w3.org/2000/svg" xmlns:xlink="http://www.w3.org/1999/xlink">
<path d="M40.548,2.856C42.18,4.136 43.305,6.204 43.765,8.369C43.821,8.387 43.875,8.408 43.927,8.434L49.04,10.799C49.326,10.93 49.568,11.14 49.738,11.405C49.908,11.669 49.999,11.977 50,12.291L50,43.209C49.998,43.466 49.937,43.719 49.821,43.948C49.705,44.177 49.537,44.376 49.332,44.53C49.126,44.683 48.887,44.787 48.634,44.833C48.382,44.879 48.122,44.865 47.875,44.794L33.702,40.794L16.852,45.439C16.548,45.522 16.227,45.519 15.925,45.429L1.185,41.041C0.844,40.941 0.545,40.734 0.331,40.45C0.118,40.166 0.002,39.821 0,39.466L0,7.994C0,6.894 1.07,6.104 2.137,6.414L16.392,10.566L23.638,8.349C23.737,8.319 23.839,8.299 23.942,8.286C24.222,6.646 25.005,5.071 26.318,3.536C27.875,1.711 30.607,0.641 33.27,0.514C36.032,0.381 38.143,0.971 40.545,2.854L40.548,2.856ZM3.332,10.201L3.332,38.239L15.508,41.861L15.508,13.744L3.332,10.201ZM23.855,11.736L18.84,13.269L18.84,41.466L31.502,37.981L31.502,29.744C31.502,28.834 32.25,28.096 33.17,28.096C34.09,28.096 34.835,28.834 34.835,29.746L34.835,37.689L46.667,41.026L46.667,13.339L43.868,12.039C43.82,12.314 43.76,12.584 43.685,12.846C43.141,14.763 42.229,16.556 41,18.124L34.808,25.856C34.644,26.06 34.436,26.222 34.199,26.331C33.962,26.439 33.704,26.491 33.443,26.482C33.183,26.473 32.928,26.404 32.699,26.279C32.47,26.154 32.274,25.978 32.125,25.764L26.337,17.381C25.382,16.046 24.712,14.856 24.335,13.791C24.098,13.127 23.937,12.437 23.855,11.736ZM33.43,3.809C31.615,3.896 29.75,4.626 28.862,5.664C27.795,6.914 27.27,8.084 27.165,9.269C27.04,10.696 27.125,11.704 27.48,12.701C27.742,13.439 28.265,14.374 29.072,15.501L33.6,22.056L38.375,16.094C39.338,14.863 40.052,13.456 40.478,11.951C41.077,9.851 40.173,6.766 38.478,5.441C36.74,4.079 35.428,3.711 33.432,3.809L33.43,3.809ZM33.775,5.551C36.535,5.551 38.775,7.764 38.775,10.494C38.771,11.147 38.639,11.793 38.386,12.394C38.133,12.996 37.763,13.542 37.299,14.001C36.835,14.46 36.284,14.823 35.68,15.069C35.075,15.316 34.428,15.44 33.775,15.436C31.015,15.436 28.775,13.224 28.775,10.494C28.775,7.764 31.015,5.551 33.775,5.551ZM33.775,8.846C33.557,8.845 33.342,8.887 33.14,8.969C32.938,9.051 32.755,9.172 32.6,9.325C32.445,9.478 32.322,9.66 32.237,9.86C32.153,10.061 32.109,10.276 32.108,10.494C32.108,11.404 32.855,12.141 33.775,12.141C33.993,12.142 34.208,12.1 34.41,12.018C34.611,11.936 34.795,11.814 34.949,11.661C35.104,11.508 35.227,11.326 35.311,11.125C35.395,10.924 35.439,10.709 35.44,10.491C35.437,10.053 35.26,9.633 34.947,9.325C34.635,9.016 34.214,8.844 33.775,8.846Z" fill="#FFFFFF"/>
</svg>
